<svg height="60px" width="60px" fill="#787878" version="1.1" id="Capa_1" xmlns="http://www.w3.org/2000/svg" xmlns:xlink="http://www.w3.org/1999/xlink" viewBox="0 0 93.43 93.43" xml:space="preserve" stroke="#787878"><g id="SVGRepo_bgCarrier" stroke-width="0"></g><g id="SVGRepo_tracerCarrier" stroke-linecap="round" stroke-linejoin="round"></g><g id="SVGRepo_iconCarrier"> <g> <g> <path d="M38.764,93.43c1.814,0,3.484-0.597,4.844-1.597c0,0,3.304-2.55,3.304-5.32c0-1.598,0.029-14.684,0.045-22.063 c4.367,2.806,9.564,1.613,11.318,1.076c1.875-0.377,3.03-0.299,5.394-0.53c2.767-0.357,6.013-1.816,9.012-4.741 c0.608-0.438,1.675-0.674,2.804-0.919c3.043-0.66,7.64-1.661,8.926-8.506l0.022-0.163c0.05-0.559,1.196-13.787-1.604-21.409 c-1.045-2.85-1.988-4.479-2.745-5.79c-0.599-1.035-1.073-1.875-1.429-3.08c2.547-0.25,4.549-2.379,4.549-4.99V5.04 c0-2.779-2.26-5.04-5.038-5.04H31.223c-2.779,0-5.039,2.261-5.039,5.04v10.358c0,2.755,2.223,4.994,4.969,5.032 c-0.843,3.996-4.137,9.353-14.337,14.086c-0.981,0.346-8.092,3.059-8.093,9.105c0,0.155,0.039,3.813,3.327,5.738 c3.709,2.172,9.802,1.039,18.129-3.365c0.203,0.769,0.383,1.869,0.383,3.33v35.904C30.563,89.751,34.242,93.43,38.764,93.43z M31.783,14.839v-9.24h45.821v9.239L31.783,14.839L31.783,14.839z"></path> <circle cx="37.477" cy="10.226" r="3.266"></circle> </g> </g> </g></svg>